PathFileType  4	(X/Y/Z) C:\Users\antoi\Documents\MyRepositories\mobilecap\ResultsAnalysis
DataRate	CameraRate	NumFrames	NumMarkers	Units	OrigDataRate	OrigDataStartFrame	OrigNumFrames
100.0	100.0	6	51	mm	100.0	17	129
Frame#	Time	r_knee			r_shank_antsup			r_ankle			r_calc			r_5meta			r_toe			L_knee			L_shank_antsup			L_ankle			L_calc			L_5meta			L_toe			r_sh2			r_sh3			r_sh4			L_sh2			L_sh3			r_thigh1			r_thigh2			r_thigh3			r_thigh4			r_thigh5			L_thigh1			L_thigh2			L_thigh3			L_thigh4			r.ASIS			r.PSIS			L.ASIS			L.PSIS			C7			R_Shoulder			L_Shoulder			R_Sternum			L_Sternum			R_humerus			R_elbow_med			R_elbow_lat			R_forearm			R_wrist_radius			R_wrist_ulna			L_humerus			L_elbow_med			L_elbow_lat			L_forearm			L_wrist_radius			L_wrist_ulna			R_HJC			L_HJC			R_HJC_reg			L_HJC_reg			
		X1	Y1	Z1	X2	Y2	Z2	X3	Y3	Z3	X4	Y4	Z4	X5	Y5	Z5	X6	Y6	Z6	X7	Y7	Z7	X8	Y8	Z8	X9	Y9	Z9	X10	Y10	Z10	X11	Y11	Z11	X12	Y12	Z12	X13	Y13	Z13	X14	Y14	Z14	X15	Y15	Z15	X16	Y16	Z16	X17	Y17	Z17	X18	Y18	Z18	X19	Y19	Z19	X20	Y20	Z20	X21	Y21	Z21	X22	Y22	Z22	X23	Y23	Z23	X24	Y24	Z24	X25	Y25	Z25	X26	Y26	Z26	X27	Y27	Z27	X28	Y28	Z28	X29	Y29	Z29	X30	Y30	Z30	X31	Y31	Z31	X32	Y32	Z32	X33	Y33	Z33	X34	Y34	Z34	X35	Y35	Z35	X36	Y36	Z36	X37	Y37	Z37	X38	Y38	Z38	X39	Y39	Z39	X40	Y40	Z40	X41	Y41	Z41	X42	Y42	Z42	X43	Y43	Z43	X44	Y44	Z44	X45	Y45	Z45	X46	Y46	Z46	X47	Y47	Z47	X48	Y48	Z48	X49	Y49	Z49	X50	Y50	Z50	X51	Y51	Z51	

17	0.16000000	254.33238	468.21769	-92.66354	297.82912	408.85411	-102.10127	251.12554	79.56447	-133.85840	198.51785	54.74978	-177.98616	364.61749	41.67464	-117.41521	404.47123	66.99072	-170.89345	138.20316	434.11168	-369.13908	104.90138	345.85566	-350.76650	-176.21818	221.62553	-318.70283	-225.50112	265.03438	-271.81172	-190.65678	100.99331	-328.75126	-144.81235	71.14772	-277.78684	288.89360	296.84885	-100.44037	227.93104	414.06321	-68.43668	209.40934	298.79423	-72.54951	67.03348	415.39086	-391.66470	-36.30706	350.28668	-385.41810	239.99236	716.71573	-33.88583	270.79264	608.92691	-57.63740	212.14540	570.73944	-56.26349	130.15182	686.28413	-39.17069	159.20528	577.32801	-75.64754	193.00698	709.69390	-396.12451	197.56624	571.26355	-381.14540	82.37557	704.25045	-401.92195	84.50372	572.48722	-363.40736	237.92594	917.55984	-105.42355	24.36378	938.25473	-182.34903	236.17848	896.22811	-327.43912	28.80614	932.84976	-263.77995	112.48167	1379.98552	-202.86337	152.47638	1342.03428	-60.27240	157.97678	1356.97033	-338.89315	236.11708	1313.97779	-176.20840	235.57838	1314.87491	-217.04830	156.88880	1226.13858	-0.45472	50.54447	1031.86969	-26.07111	79.15477	1037.73110	32.65976	132.92470	961.85763	53.94819	160.60669	819.10333	58.56160	126.51047	818.04935	82.68113	167.97341	1260.25253	-415.34038	124.70383	1035.04653	-412.13686	151.15506	1061.18064	-468.84148	227.52456	984.06899	-482.14491	288.62087	870.01299	-475.42043	260.79164	860.70107	-504.99551	154.09091	829.58954	-104.63375	154.49230	812.68663	-311.46670	163.12075	842.04607	-134.95354	171.12963	832.30570	-281.62631	
18	0.17000000	259.84809	468.21554	-92.96725	302.67475	408.21181	-102.33699	251.40087	79.79134	-134.42688	198.99182	54.69774	-178.24937	364.76708	41.68509	-117.62494	404.81223	66.11789	-171.42742	165.86075	434.67813	-371.21813	131.67996	346.60489	-351.62689	-152.36684	230.31208	-319.24053	-200.61355	273.92800	-271.13452	-168.70018	110.33752	-331.31844	-123.04305	78.66429	-280.98917	292.29631	296.32926	-100.80943	232.79346	414.24188	-68.78693	212.82802	299.21388	-72.94741	95.05865	416.08912	-393.77797	-9.44427	353.00311	-386.96409	249.25197	716.73036	-33.84533	278.50873	608.44708	-57.54898	219.18151	571.26968	-56.29422	139.12151	688.00442	-38.86756	166.28160	578.74467	-75.54070	209.22816	712.04910	-395.95139	219.41372	573.82574	-382.32161	98.89100	702.51117	-402.35241	106.19084	570.39819	-365.12532	248.93306	918.53064	-104.51735	35.15018	939.60569	-181.88291	246.98471	897.51140	-326.62121	39.18304	933.82332	-263.41305	124.23597	1381.36239	-202.14344	164.94001	1343.35929	-59.69796	169.31590	1358.22252	-338.35651	247.89613	1315.24485	-176.03130	247.01201	1316.04816	-216.85506	170.60192	1227.36013	-0.11906	65.71923	1032.04478	-24.35360	95.15578	1038.02839	33.86284	150.29431	963.10518	54.30982	180.83932	820.98578	57.97475	147.48497	819.14806	82.05870	178.89345	1261.31780	-414.70193	133.93461	1036.64901	-410.99578	160.58523	1062.29615	-467.63193	235.31866	983.94682	-481.84935	293.92542	868.52679	-476.06200	265.73242	860.00516	-505.50576	164.74006	830.68142	-104.01893	165.30012	813.87137	-310.85865	174.10156	843.79972	-133.43883	181.36323	833.39171	-280.13815	
19	0.18000000	264.89675	468.19606	-93.34159	306.98956	407.61230	-102.61331	251.67251	80.05290	-134.99129	199.42610	54.69313	-178.55270	364.90573	41.70836	-117.78004	405.13341	65.31130	-171.87011	193.34881	436.17236	-372.94098	158.49943	348.22377	-352.46033	-127.54204	238.14460	-319.80493	-175.70001	280.97843	-270.74220	-143.61209	118.74286	-334.11068	-97.80499	86.14306	-284.28913	295.30128	295.85394	-101.19411	237.12844	414.38393	-69.21092	215.87513	299.58372	-73.40353	122.89836	417.84857	-395.31310	17.45768	356.42327	-388.13021	258.15945	716.75324	-33.99325	285.77594	607.91785	-57.60497	225.89783	571.82548	-56.43721	147.77818	689.70935	-38.75409	173.01625	580.20332	-75.52166	225.19286	714.85276	-395.86186	241.02722	577.10034	-383.43521	115.30013	701.23411	-402.66259	127.87703	569.07083	-366.43473	259.82706	919.21262	-103.94409	45.80724	940.93823	-181.07484	257.54665	898.91611	-326.16588	49.29677	934.80919	-262.67184	135.88183	1382.72861	-201.45103	177.34258	1344.61691	-59.16676	180.39154	1359.38277	-337.94160	259.56117	1316.41157	-175.94425	258.29048	1317.16482	-216.76434	184.30688	1228.52182	0.14022	80.89379	1032.12634	-22.52889	111.15004	1038.32140	35.12780	167.77388	964.37766	54.62883	201.20412	822.98801	57.24956	168.66845	820.34904	81.27976	189.43455	1262.25333	-414.17792	142.96086	1038.09865	-410.15524	169.93782	1063.33407	-466.62318	243.13848	983.89405	-481.60461	299.34072	867.22636	-476.72866	270.88274	859.49158	-506.08387	175.42314	831.51020	-103.62250	175.69238	815.18115	-310.49386	184.96116	845.52385	-132.18933	191.23858	834.50011	-278.91952	
20	0.19000000	269.58929	468.18703	-93.73050	310.90336	407.07000	-102.92112	251.97464	80.34816	-135.53892	199.73604	54.81509	-178.85137	365.03535	41.73922	-117.87817	405.44314	64.55772	-172.21083	220.53975	438.57386	-374.33582	185.25401	350.66116	-353.34462	-101.83346	244.87395	-320.46534	-150.73305	286.23502	-270.78045	-115.93640	125.90428	-336.97522	-69.62176	93.20800	-287.51348	298.02758	295.43479	-101.57893	241.08970	414.51452	-69.63373	218.67459	299.93456	-73.84132	150.43101	420.63613	-396.29993	44.27953	360.46116	-388.91497	266.79855	716.83404	-34.27780	292.66911	607.38870	-57.78688	232.39185	572.43626	-56.62461	156.17682	691.40063	-38.71092	179.49993	581.73224	-75.50223	240.89080	718.07541	-395.86623	262.34909	581.05347	-384.47830	131.58413	700.41760	-402.79045	149.51626	568.49775	-367.32821	270.62128	919.69298	-103.71815	56.36377	942.29384	-179.97463	267.85924	900.45937	-326.07498	59.23026	935.82344	-261.60269	147.42386	1384.09592	-200.78041	189.66177	1345.83180	-58.68300	191.22854	1360.48672	-337.63162	271.08510	1317.48501	-175.92319	269.44302	1318.24689	-216.74867	197.98959	1229.66341	0.33026	96.11067	1032.14754	-20.61889	127.20472	1038.62915	36.43385	185.40382	965.68516	54.86261	221.70109	825.09708	56.33529	189.96469	821.67009	80.37227	199.60452	1263.10279	-413.76326	151.80180	1039.43301	-409.52129	179.14929	1064.32030	-465.77414	250.94729	983.93568	-481.40337	304.85877	866.14271	-477.42323	276.22485	859.16522	-506.71368	186.16448	832.15601	-103.44070	185.71375	816.62769	-310.36178	195.67649	847.28408	-131.23996	200.82975	835.64972	-277.99513	
21	0.20000000	274.00921	468.19514	-94.10650	314.53637	406.58567	-103.27210	252.32560	80.67071	-136.06957	199.87659	55.09700	-179.12184	365.15724	41.76988	-117.93319	405.75187	63.84550	-172.45824	247.33061	441.82079	-375.43372	211.91439	353.83512	-354.29736	-75.33953	250.29662	-321.27645	-125.58815	289.78287	-271.30877	-86.30730	131.62548	-339.77833	-39.19120	99.49884	-290.52465	300.58894	295.07243	-101.97407	244.81267	414.64196	-70.01443	221.33652	300.28064	-74.22044	177.57470	424.29825	-396.82301	70.97554	364.87783	-389.38191	275.25036	716.97657	-34.66053	299.28651	606.89679	-58.09350	238.71530	573.09789	-56.81972	164.35647	693.07313	-38.66015	185.79031	583.33350	-75.43484	256.28857	721.66525	-395.97338	283.30747	585.61440	-385.44238	147.69791	700.01663	-402.69745	171.03835	568.62305	-367.83107	281.33927	920.07002	-103.81504	66.84463	943.70294	-178.67777	277.93995	902.14742	-326.31836	69.06786	936.88298	-260.30261	158.86379	1385.46620	-200.13612	201.87189	1347.02874	-58.25713	201.86898	1361.56532	-337.40675	282.44654	1318.47376	-175.95157	280.50133	1319.30848	-216.78938	211.62507	1230.83041	0.46276	111.40945	1032.14706	-18.65579	143.39189	1038.96996	37.74928	203.21232	967.04621	54.96978	242.34136	827.30815	55.18832	211.31207	823.12851	79.36028	209.45273	1263.91321	-413.44822	160.49013	1040.69418	-408.99344	188.15496	1065.28282	-465.04474	258.68718	984.08932	-481.25693	310.45599	865.30705	-478.14860	281.70762	859.02805	-507.37762	196.96816	832.70804	-103.46218	195.44146	818.21218	-310.44188	206.23883	849.12134	-130.60081	210.23423	836.85681	-277.37271	
22	0.21000000	278.21929	468.21297	-94.46884	317.98322	406.15301	-103.69081	252.72718	81.01308	-136.58966	199.86168	55.50835	-179.37077	365.27180	41.79186	-117.96825	406.06821	63.16806	-172.63521	273.63285	445.81414	-376.26190	238.50164	357.64364	-355.28015	-48.16750	254.27589	-322.26613	-100.12489	291.70128	-272.30699	-55.30458	135.81470	-342.43130	-7.23380	104.71752	-293.23875	303.06902	294.76112	-102.40486	248.39452	414.76795	-70.34927	223.93784	300.62681	-74.53860	204.27467	428.59728	-397.00099	97.54638	369.33720	-389.63983	283.59251	717.15176	-35.12448	305.73322	606.46839	-58.52843	244.89302	573.78589	-57.01478	172.35368	694.72011	-38.57878	191.93012	584.98317	-75.31226	271.33693	725.54650	-396.18950	303.81622	590.67869	-386.32111	163.58002	699.95402	-402.37183	192.35001	569.35707	-367.98824	292.00792	920.43409	-104.17184	77.26981	945.18001	-177.30814	287.83537	903.97276	-326.82775	78.88804	938.00658	-258.90123	170.20122	1386.82986	-199.52946	213.94843	1348.22536	-57.90046	212.36480	1362.63878	-337.24757	293.63814	1319.39022	-176.02158	291.49464	1320.35454	-216.87647	225.18348	1232.06092	0.55074	126.82175	1032.16137	-16.67730	159.76766	1039.35913	39.03704	221.20816	968.48307	54.91602	263.12468	829.62307	53.78078	232.69211	824.73820	78.25262	219.05594	1264.72629	-413.22040	169.06019	1041.92162	-408.48314	196.90257	1066.24448	-464.40166	266.29429	984.36228	-481.18916	316.10335	864.74058	-478.90844	287.26635	859.07520	-508.05736	207.81607	833.24807	-103.66473	204.97883	819.92531	-310.70319	216.65542	851.04135	-130.25615	219.56342	838.13528	-277.03814	
